<?xml version="1.0" encoding="utf-8"?>
<!-- Generator: Adobe Illustrator 27.5.0, SVG Export Plug-In . SVG Version: 6.00 Build 0)  -->
<svg version="1.1" id="_x3C_Layer_x3E_" xmlns="http://www.w3.org/2000/svg" xmlns:xlink="http://www.w3.org/1999/xlink" x="0px"
	 y="0px" viewBox="0 0 2500 2000" style="enable-background:new 0 0 2500 2000;" xml:space="preserve">
<rect style="fill:#FFFFFF;" width="2500" height="2000"/>
<g>
	<g>
		<defs>
			<circle id="SVGID_1_" cx="1250" cy="1000" r="544.575"/>
		</defs>
		<clipPath id="SVGID_00000130638561228752882490000015620883572570156454_">
			<use xlink:href="#SVGID_1_"  style="overflow:visible;"/>
		</clipPath>
		
			<circle style="clip-path:url(#SVGID_00000130638561228752882490000015620883572570156454_);fill:#29ABE2;" cx="1250" cy="1000" r="544.575"/>
		<g style="opacity:0.5;clip-path:url(#SVGID_00000130638561228752882490000015620883572570156454_);">
			<g>
				<path d="M1752.611,1389.976c48.104-27.188,80.67-78.78,80.67-137.865c0-87.277-71.006-158.281-158.281-158.281
					c-87.277,0-158.281,71.004-158.281,158.281c0,59.085,32.565,110.677,80.669,137.865
					c-111.04,33.422-192.174,136.571-192.174,258.357c0,8.792,7.128,15.922,15.922,15.922L1752.611,1389.976z"/>
			</g>
			<g>
				<path d="M1750.111,1387.476c48.104-27.188,80.67-78.78,80.67-137.865c0-87.277-71.006-158.281-158.281-158.281
					c-87.277,0-158.281,71.004-158.281,158.281c0,59.085,32.565,110.677,80.669,137.865
					c-111.04,33.422-192.174,136.571-192.174,258.357c0,8.792,7.128,15.922,15.922,15.922L1750.111,1387.476z"/>
			</g>
			<g>
				<path d="M1747.611,1384.976c48.104-27.188,80.67-78.78,80.67-137.865c0-87.277-71.006-158.281-158.281-158.281
					c-87.277,0-158.281,71.004-158.281,158.281c0,59.085,32.565,110.677,80.669,137.865
					c-111.04,33.422-192.174,136.571-192.174,258.357c0,8.792,7.128,15.922,15.922,15.922L1747.611,1384.976z"/>
			</g>
			<g>
				<path d="M1745.111,1382.476c48.104-27.188,80.67-78.78,80.67-137.865c0-87.277-71.006-158.281-158.281-158.281
					c-87.277,0-158.281,71.004-158.281,158.281c0,59.085,32.565,110.677,80.669,137.865
					c-111.04,33.422-192.174,136.571-192.174,258.357c0,8.792,7.128,15.922,15.922,15.922L1745.111,1382.476z"/>
			</g>
			<g>
				<path d="M1742.611,1379.976c48.104-27.188,80.67-78.78,80.67-137.865c0-87.277-71.006-158.281-158.281-158.281
					c-87.277,0-158.281,71.004-158.281,158.281c0,59.085,32.565,110.677,80.669,137.865
					c-111.04,33.422-192.174,136.571-192.174,258.357c0,8.792,7.128,15.922,15.922,15.922L1742.611,1379.976z"/>
			</g>
			<g>
				<path d="M1740.111,1377.476c48.104-27.188,80.67-78.78,80.67-137.865c0-87.277-71.006-158.281-158.281-158.281
					c-87.277,0-158.281,71.004-158.281,158.281c0,59.085,32.565,110.677,80.669,137.865
					c-111.04,33.422-192.174,136.571-192.174,258.357c0,8.792,7.128,15.922,15.922,15.922L1740.111,1377.476z"/>
			</g>
			<g>
				<path d="M1737.611,1374.976c48.104-27.188,80.67-78.78,80.67-137.865c0-87.277-71.006-158.281-158.281-158.281
					c-87.277,0-158.281,71.004-158.281,158.281c0,59.085,32.565,110.677,80.669,137.865
					c-111.04,33.422-192.174,136.571-192.174,258.357c0,8.792,7.128,15.922,15.922,15.922L1737.611,1374.976z"/>
			</g>
			<g>
				<path d="M1735.111,1372.476c48.104-27.188,80.67-78.78,80.67-137.865c0-87.277-71.006-158.281-158.281-158.281
					c-87.277,0-158.281,71.004-158.281,158.281c0,59.085,32.565,110.677,80.669,137.865
					c-111.04,33.422-192.174,136.571-192.174,258.357c0,8.792,7.128,15.922,15.922,15.922L1735.111,1372.476z"/>
			</g>
			<g>
				<path d="M1732.611,1369.976c48.104-27.188,80.67-78.78,80.67-137.865c0-87.277-71.006-158.281-158.281-158.281
					c-87.277,0-158.281,71.004-158.281,158.281c0,59.085,32.565,110.677,80.669,137.865
					c-111.04,33.422-192.174,136.571-192.174,258.357c0,8.792,7.128,15.922,15.922,15.922L1732.611,1369.976z"/>
			</g>
			<g>
				<path d="M1730.111,1367.476c48.104-27.188,80.67-78.78,80.67-137.865c0-87.277-71.006-158.281-158.281-158.281
					c-87.277,0-158.281,71.004-158.281,158.281c0,59.085,32.565,110.677,80.669,137.865
					c-111.04,33.422-192.174,136.571-192.174,258.357c0,8.792,7.128,15.922,15.922,15.922L1730.111,1367.476z"/>
			</g>
			<g>
				<path d="M1727.611,1364.976c48.104-27.188,80.67-78.78,80.67-137.865c0-87.277-71.006-158.281-158.281-158.281
					c-87.277,0-158.281,71.004-158.281,158.281c0,59.085,32.565,110.677,80.669,137.865
					c-111.04,33.422-192.174,136.571-192.174,258.357c0,8.792,7.128,15.922,15.922,15.922L1727.611,1364.976z"/>
			</g>
			<g>
				<path d="M1725.111,1362.476c48.104-27.188,80.67-78.78,80.67-137.865c0-87.277-71.006-158.281-158.281-158.281
					c-87.277,0-158.281,71.004-158.281,158.281c0,59.085,32.565,110.677,80.669,137.865
					c-111.04,33.422-192.174,136.571-192.174,258.357c0,8.792,7.128,15.922,15.922,15.922L1725.111,1362.476z"/>
			</g>
			<g>
				<path d="M1722.611,1359.976c48.104-27.188,80.67-78.78,80.67-137.865c0-87.277-71.006-158.281-158.281-158.281
					c-87.277,0-158.281,71.004-158.281,158.281c0,59.085,32.565,110.677,80.669,137.865
					c-111.04,33.422-192.174,136.571-192.174,258.357c0,8.792,7.128,15.922,15.922,15.922L1722.611,1359.976z"/>
			</g>
			<g>
				<path d="M1720.111,1357.476c48.104-27.188,80.67-78.78,80.67-137.865c0-87.277-71.006-158.281-158.281-158.281
					c-87.277,0-158.281,71.004-158.281,158.281c0,59.085,32.565,110.677,80.669,137.865
					c-111.04,33.422-192.174,136.571-192.174,258.357c0,8.792,7.128,15.922,15.922,15.922L1720.111,1357.476z"/>
			</g>
			<g>
				<path d="M1717.611,1354.976c48.104-27.188,80.67-78.78,80.67-137.865c0-87.277-71.006-158.281-158.281-158.281
					c-87.277,0-158.281,71.004-158.281,158.281c0,59.085,32.565,110.677,80.669,137.865
					c-111.04,33.422-192.174,136.571-192.174,258.357c0,8.792,7.128,15.922,15.922,15.922L1717.611,1354.976z"/>
			</g>
			<g>
				<path d="M1715.111,1352.476c48.104-27.188,80.67-78.78,80.67-137.865c0-87.277-71.006-158.281-158.281-158.281
					c-87.277,0-158.281,71.004-158.281,158.281c0,59.085,32.565,110.677,80.669,137.865
					c-111.04,33.422-192.174,136.571-192.174,258.357c0,8.792,7.128,15.922,15.922,15.922L1715.111,1352.476z"/>
			</g>
			<g>
				<path d="M1712.611,1349.976c48.104-27.188,80.67-78.78,80.67-137.865c0-87.277-71.006-158.281-158.281-158.281
					c-87.277,0-158.281,71.004-158.281,158.281c0,59.085,32.565,110.677,80.669,137.865
					c-111.04,33.422-192.174,136.571-192.174,258.357c0,8.792,7.128,15.922,15.922,15.922L1712.611,1349.976z"/>
			</g>
			<g>
				<path d="M1710.111,1347.476c48.104-27.188,80.67-78.78,80.67-137.865c0-87.277-71.006-158.281-158.281-158.281
					c-87.277,0-158.281,71.004-158.281,158.281c0,59.085,32.565,110.677,80.669,137.865
					c-111.04,33.422-192.174,136.571-192.174,258.357c0,8.792,7.128,15.922,15.922,15.922L1710.111,1347.476z"/>
			</g>
			<g>
				<path d="M1707.611,1344.976c48.104-27.188,80.67-78.78,80.67-137.865c0-87.277-71.006-158.281-158.281-158.281
					c-87.277,0-158.281,71.004-158.281,158.281c0,59.085,32.565,110.677,80.669,137.865
					c-111.04,33.422-192.174,136.571-192.174,258.357c0,8.792,7.128,15.922,15.922,15.922L1707.611,1344.976z"/>
			</g>
			<g>
				<path d="M1705.111,1342.476c48.104-27.188,80.67-78.78,80.67-137.865c0-87.277-71.006-158.281-158.281-158.281
					c-87.277,0-158.281,71.004-158.281,158.281c0,59.085,32.565,110.677,80.669,137.865
					c-111.04,33.422-192.174,136.571-192.174,258.357c0,8.792,7.128,15.922,15.922,15.922L1705.111,1342.476z"/>
			</g>
			<g>
				<path d="M1702.611,1339.976c48.104-27.188,80.67-78.78,80.67-137.865c0-87.277-71.006-158.281-158.281-158.281
					c-87.277,0-158.281,71.004-158.281,158.281c0,59.085,32.565,110.677,80.669,137.865
					c-111.04,33.422-192.174,136.571-192.174,258.357c0,8.792,7.128,15.922,15.922,15.922L1702.611,1339.976z"/>
			</g>
			<g>
				<path d="M1700.111,1337.476c48.104-27.188,80.67-78.78,80.67-137.865c0-87.277-71.006-158.281-158.281-158.281
					c-87.277,0-158.281,71.004-158.281,158.281c0,59.085,32.565,110.677,80.669,137.865
					c-111.04,33.422-192.174,136.571-192.174,258.357c0,8.792,7.128,15.922,15.922,15.922L1700.111,1337.476z"/>
			</g>
			<g>
				<path d="M1697.611,1334.976c48.104-27.188,80.67-78.78,80.67-137.865c0-87.277-71.006-158.281-158.281-158.281
					c-87.277,0-158.281,71.004-158.281,158.281c0,59.085,32.565,110.677,80.669,137.865
					c-111.04,33.422-192.174,136.571-192.174,258.357c0,8.792,7.128,15.922,15.922,15.922L1697.611,1334.976z"/>
			</g>
			<g>
				<path d="M1695.111,1332.476c48.104-27.188,80.67-78.78,80.67-137.865c0-87.277-71.006-158.281-158.281-158.281
					c-87.277,0-158.281,71.004-158.281,158.281c0,59.085,32.565,110.677,80.669,137.865
					c-111.04,33.422-192.174,136.571-192.174,258.357c0,8.792,7.128,15.922,15.922,15.922L1695.111,1332.476z"/>
			</g>
			<g>
				<path d="M1692.611,1329.976c48.104-27.188,80.67-78.78,80.67-137.865c0-87.277-71.006-158.281-158.281-158.281
					c-87.277,0-158.281,71.004-158.281,158.281c0,59.085,32.565,110.677,80.669,137.865
					c-111.04,33.422-192.174,136.571-192.174,258.357c0,8.792,7.128,15.922,15.922,15.922L1692.611,1329.976z"/>
			</g>
			<g>
				<path d="M1690.111,1327.476c48.104-27.188,80.67-78.78,80.67-137.865c0-87.277-71.006-158.281-158.281-158.281
					c-87.277,0-158.281,71.004-158.281,158.281c0,59.085,32.565,110.677,80.669,137.865
					c-111.04,33.422-192.174,136.571-192.174,258.357c0,8.792,7.128,15.922,15.922,15.922L1690.111,1327.476z"/>
			</g>
			<g>
				<path d="M1687.611,1324.976c48.104-27.188,80.67-78.78,80.67-137.865c0-87.277-71.006-158.281-158.281-158.281
					c-87.277,0-158.281,71.004-158.281,158.281c0,59.085,32.565,110.677,80.669,137.865
					c-111.04,33.422-192.174,136.571-192.174,258.357c0,8.792,7.128,15.922,15.922,15.922L1687.611,1324.976z"/>
			</g>
			<g>
				<path d="M1685.111,1322.476c48.104-27.188,80.67-78.78,80.67-137.865c0-87.277-71.006-158.281-158.281-158.281
					c-87.277,0-158.281,71.004-158.281,158.281c0,59.085,32.565,110.677,80.669,137.865
					c-111.04,33.422-192.174,136.571-192.174,258.357c0,8.792,7.128,15.922,15.922,15.922L1685.111,1322.476z"/>
			</g>
			<g>
				<path d="M1682.611,1319.976c48.104-27.188,80.67-78.78,80.67-137.865c0-87.277-71.006-158.281-158.281-158.281
					c-87.277,0-158.281,71.004-158.281,158.281c0,59.085,32.565,110.677,80.669,137.865
					c-111.04,33.422-192.174,136.571-192.174,258.357c0,8.792,7.128,15.922,15.922,15.922L1682.611,1319.976z"/>
			</g>
			<g>
				<path d="M1872.287,1575.833c0-121.786-81.135-224.936-192.176-258.357c48.104-27.188,80.67-78.78,80.67-137.865
					c0-87.277-71.006-158.281-158.281-158.281c-87.277,0-158.281,71.004-158.281,158.281c0,59.085,32.565,110.677,80.669,137.865
					c-111.04,33.422-192.174,136.571-192.174,258.357c0,8.792,7.128,15.922,15.922,15.922L1872.287,1575.833z"/>
			</g>
			<g>
				<path d="M1869.787,1573.333c0-121.786-81.135-224.936-192.176-258.357c48.104-27.188,80.67-78.78,80.67-137.865
					c0-87.277-71.006-158.281-158.281-158.281c-87.277,0-158.281,71.004-158.281,158.281c0,59.085,32.565,110.677,80.669,137.865
					c-111.04,33.422-192.174,136.571-192.174,258.357c0,8.792,7.128,15.922,15.922,15.922L1869.787,1573.333z"/>
			</g>
			<g>
				<path d="M1867.287,1570.833c0-121.786-81.135-224.936-192.176-258.357c48.104-27.188,80.67-78.78,80.67-137.865
					c0-87.277-71.006-158.281-158.281-158.281c-87.277,0-158.281,71.004-158.281,158.281c0,59.085,32.565,110.677,80.669,137.865
					c-111.04,33.422-192.174,136.571-192.174,258.357c0,8.792,7.128,15.922,15.922,15.922L1867.287,1570.833z"/>
			</g>
			<g>
				<path d="M1864.787,1568.333c0-121.786-81.135-224.936-192.176-258.357c48.104-27.188,80.67-78.78,80.67-137.865
					c0-87.277-71.006-158.281-158.281-158.281c-87.277,0-158.281,71.004-158.281,158.281c0,59.085,32.565,110.677,80.669,137.865
					c-111.04,33.422-192.174,136.571-192.174,258.357c0,8.792,7.128,15.922,15.922,15.922L1864.787,1568.333z"/>
			</g>
			<g>
				<path d="M1862.287,1565.833c0-121.786-81.135-224.936-192.176-258.357c48.104-27.188,80.67-78.78,80.67-137.865
					c0-87.277-71.006-158.281-158.281-158.281c-87.277,0-158.281,71.004-158.281,158.281c0,59.085,32.565,110.677,80.669,137.865
					c-111.04,33.422-192.174,136.571-192.174,258.357c0,8.792,7.128,15.922,15.922,15.922L1862.287,1565.833z"/>
			</g>
			<g>
				<path d="M1859.787,1563.333c0-121.786-81.135-224.936-192.176-258.357c48.104-27.188,80.67-78.78,80.67-137.865
					c0-87.277-71.006-158.281-158.281-158.281c-87.277,0-158.281,71.004-158.281,158.281c0,59.085,32.565,110.677,80.669,137.865
					c-111.04,33.422-192.174,136.571-192.174,258.357c0,8.792,7.129,15.922,15.922,15.922L1859.787,1563.333z"/>
			</g>
			<g>
				<path d="M1665.111,1302.476c48.104-27.188,80.67-78.78,80.67-137.865c0-87.277-71.006-158.281-158.281-158.281
					c-87.277,0-158.281,71.004-158.281,158.281c0,59.085,32.565,110.677,80.669,137.865
					c-111.04,33.422-192.174,136.571-192.174,258.357c0,8.792,7.129,15.922,15.922,15.922h507.729
					c8.792,0,15.922-7.13,15.922-15.922C1857.287,1439.047,1776.152,1335.897,1665.111,1302.476z"/>
			</g>
			<g>
				<path d="M1662.611,1299.976c48.104-27.188,80.67-78.78,80.67-137.865c0-87.277-71.006-158.281-158.281-158.281
					c-87.277,0-158.281,71.004-158.281,158.281c0,59.085,32.565,110.677,80.669,137.865
					c-111.04,33.422-192.174,136.571-192.174,258.357c0,8.792,7.129,15.922,15.922,15.922h507.729
					c8.792,0,15.922-7.13,15.922-15.922C1854.787,1436.547,1773.652,1333.397,1662.611,1299.976z"/>
			</g>
			<g>
				<path d="M1660.111,1297.476c48.104-27.188,80.67-78.78,80.67-137.865c0-87.277-71.006-158.281-158.281-158.281
					c-87.277,0-158.281,71.004-158.281,158.281c0,59.085,32.565,110.677,80.669,137.865
					c-111.04,33.422-192.174,136.571-192.174,258.357c0,8.792,7.129,15.922,15.922,15.922h507.729
					c8.792,0,15.922-7.13,15.922-15.922C1852.287,1434.047,1771.152,1330.897,1660.111,1297.476z"/>
			</g>
			<g>
				<path d="M1657.611,1294.976c48.104-27.188,80.67-78.78,80.67-137.865c0-87.277-71.006-158.281-158.281-158.281
					c-87.277,0-158.281,71.004-158.281,158.281c0,59.085,32.565,110.677,80.669,137.865
					c-111.04,33.422-192.174,136.571-192.174,258.357c0,8.792,7.129,15.922,15.922,15.922h507.729
					c8.792,0,15.922-7.13,15.922-15.922C1849.787,1431.547,1768.652,1328.397,1657.611,1294.976z"/>
			</g>
			<g>
				<path d="M1655.111,1292.476c48.104-27.188,80.67-78.78,80.67-137.865c0-87.277-71.006-158.281-158.281-158.281
					c-87.277,0-158.281,71.004-158.281,158.281c0,59.085,32.565,110.677,80.669,137.865
					c-111.04,33.422-192.174,136.571-192.174,258.357c0,8.792,7.129,15.922,15.922,15.922h507.729
					c8.792,0,15.922-7.13,15.922-15.922C1847.287,1429.047,1766.152,1325.897,1655.111,1292.476z"/>
			</g>
			<g>
				<path d="M1652.611,1289.976c48.104-27.188,80.67-78.78,80.67-137.865c0-87.277-71.006-158.281-158.281-158.281
					c-87.277,0-158.281,71.004-158.281,158.281c0,59.085,32.565,110.677,80.669,137.865
					c-111.04,33.422-192.174,136.571-192.174,258.357c0,8.792,7.129,15.922,15.922,15.922h507.729
					c8.792,0,15.922-7.13,15.922-15.922C1844.787,1426.547,1763.652,1323.397,1652.611,1289.976z"/>
			</g>
			<g>
				<path d="M1650.111,1287.476c48.104-27.188,80.67-78.78,80.67-137.865c0-87.277-71.006-158.281-158.281-158.281
					c-87.277,0-158.281,71.004-158.281,158.281c0,59.085,32.565,110.677,80.669,137.865
					c-111.04,33.422-192.174,136.571-192.174,258.357c0,8.792,7.129,15.922,15.922,15.922h507.729
					c8.792,0,15.922-7.13,15.922-15.922C1842.287,1424.047,1761.152,1320.897,1650.111,1287.476z"/>
			</g>
			<g>
				<path d="M1647.611,1284.976c48.104-27.188,80.67-78.78,80.67-137.865c0-87.277-71.006-158.281-158.281-158.281
					c-87.277,0-158.281,71.004-158.281,158.281c0,59.085,32.565,110.677,80.669,137.865
					c-111.04,33.422-192.174,136.571-192.174,258.357c0,8.792,7.129,15.922,15.922,15.922h507.729
					c8.792,0,15.922-7.13,15.922-15.922C1839.787,1421.547,1758.652,1318.397,1647.611,1284.976z"/>
			</g>
			<g>
				<path d="M1645.111,1282.476c48.104-27.188,80.67-78.78,80.67-137.865c0-87.277-71.006-158.281-158.281-158.281
					c-87.277,0-158.281,71.004-158.281,158.281c0,59.085,32.565,110.677,80.669,137.865
					c-111.04,33.422-192.174,136.571-192.174,258.357c0,8.792,7.129,15.922,15.922,15.922h507.729
					c8.792,0,15.922-7.13,15.922-15.922C1837.287,1419.047,1756.152,1315.897,1645.111,1282.476z"/>
			</g>
			<g>
				<path d="M1642.611,1279.976c48.104-27.188,80.67-78.78,80.67-137.865c0-87.277-71.006-158.281-158.281-158.281
					c-87.277,0-158.281,71.004-158.281,158.281c0,59.085,32.565,110.677,80.669,137.865
					c-111.04,33.422-192.174,136.571-192.174,258.357c0,8.792,7.129,15.922,15.922,15.922h507.729
					c8.792,0,15.922-7.13,15.922-15.922C1834.787,1416.547,1753.652,1313.397,1642.611,1279.976z"/>
			</g>
			<g>
				<path d="M1640.111,1277.476c48.104-27.188,80.67-78.78,80.67-137.865c0-87.277-71.006-158.281-158.281-158.281
					c-87.277,0-158.281,71.004-158.281,158.281c0,59.085,32.565,110.677,80.669,137.865
					c-111.04,33.422-192.174,136.571-192.174,258.357c0,8.792,7.129,15.922,15.922,15.922h507.729
					c8.792,0,15.922-7.13,15.922-15.922C1832.287,1414.047,1751.152,1310.897,1640.111,1277.476z"/>
			</g>
			<g>
				<path d="M1637.611,1274.976c48.104-27.188,80.67-78.78,80.67-137.865c0-87.277-71.006-158.281-158.281-158.281
					c-87.277,0-158.281,71.004-158.281,158.281c0,59.085,32.565,110.677,80.669,137.865
					c-111.04,33.422-192.174,136.571-192.174,258.357c0,8.792,7.129,15.922,15.922,15.922h507.729
					c8.792,0,15.922-7.13,15.922-15.922C1829.787,1411.547,1748.652,1308.397,1637.611,1274.976z"/>
			</g>
			<g>
				<path d="M1635.111,1272.476c48.104-27.188,80.67-78.78,80.67-137.865c0-87.277-71.006-158.281-158.281-158.281
					c-87.277,0-158.281,71.004-158.281,158.281c0,59.085,32.565,110.677,80.669,137.865
					c-111.04,33.422-192.174,136.571-192.174,258.357c0,8.792,7.129,15.922,15.922,15.922h507.729
					c8.792,0,15.922-7.13,15.922-15.922C1827.287,1409.047,1746.152,1305.897,1635.111,1272.476z"/>
			</g>
			<g>
				<path d="M1632.611,1269.976c48.104-27.188,80.67-78.78,80.67-137.865c0-87.277-71.006-158.281-158.281-158.281
					c-87.277,0-158.281,71.004-158.281,158.281c0,59.085,32.565,110.677,80.669,137.865
					c-111.04,33.422-192.174,136.571-192.174,258.357c0,8.792,7.129,15.922,15.922,15.922h507.729
					c8.792,0,15.922-7.13,15.922-15.922C1824.787,1406.547,1743.652,1303.397,1632.611,1269.976z"/>
			</g>
			<g>
				<path d="M1630.111,1267.476c48.104-27.188,80.67-78.78,80.67-137.865c0-87.277-71.006-158.281-158.281-158.281
					c-87.277,0-158.281,71.004-158.281,158.281c0,59.085,32.565,110.677,80.669,137.865
					c-111.04,33.422-192.174,136.571-192.174,258.357c0,8.792,7.129,15.922,15.922,15.922h507.729
					c8.792,0,15.922-7.13,15.922-15.922C1822.287,1404.047,1741.152,1300.897,1630.111,1267.476z"/>
			</g>
			<g>
				<path d="M1627.611,1264.976c48.104-27.188,80.67-78.78,80.67-137.865c0-87.277-71.006-158.281-158.281-158.281
					c-87.277,0-158.281,71.004-158.281,158.281c0,59.085,32.565,110.677,80.669,137.865
					c-111.04,33.422-192.174,136.571-192.174,258.357c0,8.792,7.129,15.922,15.922,15.922h507.729
					c8.792,0,15.922-7.13,15.922-15.922C1819.787,1401.547,1738.652,1298.397,1627.611,1264.976z"/>
			</g>
			<g>
				<path d="M1625.111,1262.476c48.104-27.188,80.67-78.78,80.67-137.865c0-87.277-71.006-158.281-158.281-158.281
					c-87.277,0-158.281,71.004-158.281,158.281c0,59.085,32.565,110.677,80.669,137.865
					c-111.04,33.422-192.174,136.571-192.174,258.357c0,8.792,7.129,15.922,15.922,15.922h507.729
					c8.792,0,15.922-7.13,15.922-15.922C1817.287,1399.047,1736.152,1295.897,1625.111,1262.476z"/>
			</g>
			<g>
				<path d="M1622.611,1259.976c48.104-27.188,80.67-78.78,80.67-137.865c0-87.277-71.006-158.281-158.281-158.281
					c-87.277,0-158.281,71.004-158.281,158.281c0,59.085,32.565,110.677,80.669,137.865
					c-111.04,33.422-192.174,136.571-192.174,258.357c0,8.792,7.129,15.922,15.922,15.922h507.729
					c8.792,0,15.922-7.13,15.922-15.922C1814.787,1396.547,1733.652,1293.397,1622.611,1259.976z"/>
			</g>
			<g>
				<path d="M1620.111,1257.476c48.104-27.188,80.67-78.78,80.67-137.865c0-87.277-71.006-158.281-158.281-158.281
					c-87.277,0-158.281,71.004-158.281,158.281c0,59.085,32.565,110.677,80.669,137.865
					c-111.04,33.422-192.174,136.571-192.174,258.357c0,8.792,7.129,15.922,15.922,15.922h507.729
					c8.792,0,15.922-7.13,15.922-15.922C1812.287,1394.047,1731.152,1290.897,1620.111,1257.476z"/>
			</g>
			<g>
				<path d="M1617.611,1254.976c48.104-27.188,80.67-78.78,80.67-137.865c0-87.277-71.006-158.281-158.281-158.281
					c-87.277,0-158.281,71.004-158.281,158.281c0,59.085,32.565,110.677,80.669,137.865
					c-111.04,33.422-192.174,136.571-192.174,258.357c0,8.792,7.129,15.922,15.922,15.922h507.729
					c8.792,0,15.922-7.13,15.922-15.922C1809.787,1391.547,1728.652,1288.397,1617.611,1254.976z"/>
			</g>
			<g>
				<path d="M1615.111,1252.476c48.104-27.188,80.67-78.78,80.67-137.865c0-87.277-71.006-158.281-158.281-158.281
					c-87.277,0-158.281,71.004-158.281,158.281c0,59.085,32.565,110.677,80.669,137.865
					c-111.04,33.422-192.174,136.571-192.174,258.357c0,8.792,7.129,15.922,15.922,15.922h507.729
					c8.792,0,15.922-7.13,15.922-15.922C1807.287,1389.047,1726.152,1285.897,1615.111,1252.476z"/>
			</g>
			<g>
				<path d="M1612.611,1249.976c48.104-27.188,80.67-78.78,80.67-137.865c0-87.277-71.006-158.281-158.281-158.281
					c-87.277,0-158.281,71.004-158.281,158.281c0,59.085,32.565,110.677,80.669,137.865
					c-111.04,33.422-192.174,136.571-192.174,258.357c0,8.792,7.129,15.922,15.922,15.922h507.729
					c8.792,0,15.922-7.13,15.922-15.922C1804.787,1386.547,1723.652,1283.397,1612.611,1249.976z"/>
			</g>
			<g>
				<path d="M1610.111,1247.476c48.104-27.188,80.67-78.78,80.67-137.865c0-87.277-71.006-158.281-158.281-158.281
					c-87.277,0-158.281,71.004-158.281,158.281c0,59.085,32.565,110.677,80.669,137.865
					c-111.04,33.422-192.174,136.571-192.174,258.357c0,8.792,7.129,15.922,15.922,15.922h507.729
					c8.792,0,15.922-7.13,15.922-15.922C1802.287,1384.047,1721.152,1280.897,1610.111,1247.476z"/>
			</g>
			<g>
				<path d="M1607.611,1244.976c48.104-27.188,80.67-78.78,80.67-137.865c0-87.277-71.006-158.281-158.281-158.281
					c-87.277,0-158.281,71.004-158.281,158.281c0,59.085,32.565,110.677,80.669,137.865
					c-111.04,33.422-192.174,136.571-192.174,258.357c0,8.792,7.129,15.922,15.922,15.922h507.729
					c8.792,0,15.922-7.13,15.922-15.922C1799.787,1381.547,1718.652,1278.397,1607.611,1244.976z"/>
			</g>
			<g>
				<path d="M1605.111,1242.476c48.104-27.188,80.67-78.78,80.67-137.865c0-87.277-71.006-158.281-158.281-158.281
					c-87.277,0-158.281,71.004-158.281,158.281c0,59.085,32.565,110.677,80.669,137.865
					c-111.04,33.422-192.174,136.571-192.174,258.357c0,8.792,7.129,15.922,15.922,15.922h507.729
					c8.792,0,15.922-7.13,15.922-15.922C1797.287,1379.047,1716.152,1275.897,1605.111,1242.476z"/>
			</g>
			<g>
				<path d="M1602.611,1239.976c48.104-27.188,80.67-78.78,80.67-137.865c0-87.277-71.006-158.281-158.281-158.281
					c-87.277,0-158.281,71.004-158.281,158.281c0,59.085,32.565,110.677,80.669,137.865
					c-111.04,33.422-192.174,136.571-192.174,258.357c0,8.792,7.129,15.922,15.922,15.922h507.729
					c8.792,0,15.922-7.13,15.922-15.922C1794.787,1376.547,1713.652,1273.397,1602.611,1239.976z"/>
			</g>
			<g>
				<path d="M1600.111,1237.476c48.104-27.188,80.67-78.78,80.67-137.865c0-87.277-71.006-158.281-158.281-158.281
					c-87.277,0-158.281,71.004-158.281,158.281c0,59.085,32.565,110.677,80.669,137.865
					c-111.04,33.422-192.174,136.571-192.174,258.357c0,8.792,7.129,15.922,15.922,15.922h507.729
					c8.792,0,15.922-7.13,15.922-15.922C1792.287,1374.047,1711.152,1270.897,1600.111,1237.476z"/>
			</g>
			<g>
				<path d="M1597.611,1234.976c48.104-27.188,80.67-78.78,80.67-137.865c0-87.277-71.006-158.281-158.281-158.281
					c-87.277,0-158.281,71.004-158.281,158.281c0,59.085,32.565,110.677,80.669,137.865
					c-111.04,33.422-192.174,136.571-192.174,258.357c0,8.792,7.129,15.922,15.922,15.922h507.729
					c8.792,0,15.922-7.13,15.922-15.922C1789.787,1371.547,1708.652,1268.397,1597.611,1234.976z"/>
			</g>
			<g>
				<path d="M1595.111,1232.476c48.104-27.188,80.67-78.78,80.67-137.865c0-87.277-71.006-158.281-158.281-158.281
					c-87.277,0-158.281,71.004-158.281,158.281c0,59.085,32.565,110.677,80.669,137.865
					c-111.04,33.422-192.174,136.571-192.174,258.357c0,8.792,7.129,15.922,15.922,15.922h507.729
					c8.792,0,15.922-7.13,15.922-15.922C1787.287,1369.047,1706.152,1265.897,1595.111,1232.476z"/>
			</g>
			<g>
				<path d="M1592.611,1229.976c48.104-27.188,80.67-78.78,80.67-137.865c0-87.277-71.006-158.281-158.281-158.281
					c-87.277,0-158.281,71.004-158.281,158.281c0,59.085,32.565,110.677,80.669,137.865
					c-111.04,33.422-192.174,136.571-192.174,258.357c0,8.792,7.129,15.922,15.922,15.922h507.729
					c8.792,0,15.922-7.13,15.922-15.922C1784.787,1366.547,1703.652,1263.397,1592.611,1229.976z"/>
			</g>
			<g>
				<path d="M1590.111,1227.476c48.104-27.188,80.67-78.78,80.67-137.865c0-87.277-71.006-158.281-158.281-158.281
					c-87.277,0-158.281,71.004-158.281,158.281c0,59.085,32.565,110.677,80.669,137.865
					c-111.04,33.422-192.174,136.571-192.174,258.357c0,8.792,7.129,15.922,15.922,15.922h507.729
					c8.792,0,15.922-7.13,15.922-15.922C1782.287,1364.047,1701.152,1260.897,1590.111,1227.476z"/>
			</g>
			<g>
				<path d="M1587.611,1224.976c48.104-27.188,80.67-78.78,80.67-137.865c0-87.277-71.006-158.281-158.281-158.281
					c-87.277,0-158.281,71.004-158.281,158.281c0,59.085,32.565,110.677,80.669,137.865
					c-111.04,33.422-192.174,136.571-192.174,258.357c0,8.792,7.129,15.922,15.922,15.922h507.729
					c8.792,0,15.922-7.13,15.922-15.922C1779.787,1361.547,1698.652,1258.397,1587.611,1224.976z"/>
			</g>
			<g>
				<path d="M1585.111,1222.476c48.104-27.188,80.67-78.78,80.67-137.865c0-87.277-71.006-158.281-158.281-158.281
					c-87.277,0-158.281,71.004-158.281,158.281c0,59.085,32.565,110.677,80.669,137.865
					c-111.04,33.422-192.174,136.571-192.174,258.357c0,8.792,7.129,15.922,15.922,15.922h507.729
					c8.792,0,15.922-7.13,15.922-15.922C1777.287,1359.047,1696.152,1255.897,1585.111,1222.476z"/>
			</g>
			<g>
				<path d="M1582.611,1219.976c48.104-27.188,80.67-78.78,80.67-137.865c0-87.277-71.006-158.281-158.281-158.281
					c-87.277,0-158.281,71.004-158.281,158.281c0,59.085,32.565,110.677,80.669,137.865
					c-111.04,33.422-192.174,136.571-192.174,258.357c0,8.792,7.129,15.922,15.922,15.922h507.729
					c8.792,0,15.922-7.13,15.922-15.922C1774.787,1356.547,1693.652,1253.397,1582.611,1219.976z"/>
			</g>
			<g>
				<path d="M1580.111,1217.476c48.104-27.188,80.67-78.78,80.67-137.865c0-87.277-71.006-158.281-158.281-158.281
					c-87.277,0-158.281,71.004-158.281,158.281c0,59.085,32.565,110.677,80.669,137.865
					c-111.04,33.422-192.174,136.571-192.174,258.357c0,8.792,7.129,15.922,15.922,15.922h507.729
					c8.792,0,15.922-7.13,15.922-15.922C1772.287,1354.047,1691.152,1250.897,1580.111,1217.476z"/>
			</g>
			<g>
				<path d="M1577.611,1214.976c48.104-27.188,80.67-78.78,80.67-137.865c0-87.277-71.006-158.281-158.281-158.281
					c-87.277,0-158.281,71.004-158.281,158.281c0,59.085,32.565,110.677,80.669,137.865
					c-111.04,33.422-192.174,136.571-192.174,258.357c0,8.792,7.129,15.922,15.922,15.922h507.729
					c8.792,0,15.922-7.13,15.922-15.922C1769.787,1351.547,1688.652,1248.397,1577.611,1214.976z"/>
			</g>
			<g>
				<path d="M1575.111,1212.476c48.104-27.188,80.67-78.78,80.67-137.865c0-87.277-71.006-158.281-158.281-158.281
					c-87.277,0-158.281,71.004-158.281,158.281c0,59.085,32.565,110.677,80.669,137.865
					c-111.04,33.422-192.174,136.571-192.174,258.357c0,8.792,7.129,15.922,15.922,15.922h507.729
					c8.792,0,15.922-7.13,15.922-15.922C1767.287,1349.047,1686.152,1245.897,1575.111,1212.476z"/>
			</g>
			<g>
				<path d="M1572.611,1209.976c48.104-27.188,80.67-78.78,80.67-137.865c0-87.277-71.006-158.281-158.281-158.281
					c-87.277,0-158.281,71.004-158.281,158.281c0,59.085,32.565,110.677,80.669,137.865
					c-111.04,33.422-192.174,136.571-192.174,258.357c0,8.792,7.129,15.922,15.922,15.922h507.729
					c8.792,0,15.922-7.13,15.922-15.922C1764.787,1346.547,1683.652,1243.397,1572.611,1209.976z"/>
			</g>
			<g>
				<path d="M1570.111,1207.476c48.104-27.188,80.67-78.78,80.67-137.865c0-87.277-71.006-158.281-158.281-158.281
					c-87.277,0-158.281,71.004-158.281,158.281c0,59.085,32.565,110.677,80.669,137.865
					c-111.04,33.422-192.174,136.571-192.174,258.357c0,8.792,7.129,15.922,15.922,15.922h507.729
					c8.792,0,15.922-7.13,15.922-15.922C1762.287,1344.047,1681.152,1240.897,1570.111,1207.476z"/>
			</g>
			<g>
				<path d="M1567.611,1204.976c48.104-27.188,80.67-78.78,80.67-137.865c0-87.277-71.006-158.281-158.281-158.281
					c-87.277,0-158.281,71.004-158.281,158.281c0,59.085,32.565,110.677,80.669,137.865
					c-111.04,33.422-192.174,136.571-192.174,258.357c0,8.792,7.129,15.922,15.922,15.922h507.729
					c8.792,0,15.922-7.13,15.922-15.922C1759.787,1341.547,1678.652,1238.397,1567.611,1204.976z"/>
			</g>
			<g>
				<path d="M1565.111,1202.476c48.104-27.188,80.67-78.78,80.67-137.865c0-87.277-71.006-158.281-158.281-158.281
					c-87.277,0-158.281,71.004-158.281,158.281c0,59.085,32.565,110.677,80.669,137.865
					c-111.04,33.422-192.174,136.571-192.174,258.357c0,8.792,7.129,15.922,15.922,15.922h507.729
					c8.792,0,15.922-7.13,15.922-15.922C1757.287,1339.047,1676.152,1235.897,1565.111,1202.476z"/>
			</g>
			<g>
				<path d="M1562.611,1199.976c48.104-27.188,80.67-78.78,80.67-137.865c0-87.277-71.006-158.281-158.281-158.281
					c-87.277,0-158.281,71.004-158.281,158.281c0,59.085,32.565,110.677,80.669,137.865
					c-111.04,33.422-192.174,136.571-192.174,258.357c0,8.792,7.129,15.922,15.922,15.922h507.729
					c8.792,0,15.922-7.13,15.922-15.922C1754.787,1336.547,1673.652,1233.397,1562.611,1199.976z"/>
			</g>
			<g>
				<path d="M1560.111,1197.476c48.104-27.188,80.67-78.78,80.67-137.865c0-87.277-71.006-158.281-158.281-158.281
					c-87.277,0-158.281,71.004-158.281,158.281c0,59.085,32.565,110.677,80.669,137.865
					c-111.04,33.422-192.174,136.571-192.174,258.357c0,8.792,7.129,15.922,15.922,15.922h507.729
					c8.792,0,15.922-7.13,15.922-15.922C1752.287,1334.047,1671.152,1230.897,1560.111,1197.476z"/>
			</g>
			<g>
				<path d="M1557.611,1194.976c48.104-27.188,80.67-78.78,80.67-137.865c0-87.277-71.006-158.281-158.281-158.281
					c-87.277,0-158.281,71.004-158.281,158.281c0,59.085,32.565,110.677,80.669,137.865
					c-111.04,33.422-192.174,136.571-192.174,258.357c0,8.792,7.129,15.922,15.922,15.922h507.729
					c8.792,0,15.922-7.13,15.922-15.922C1749.787,1331.547,1668.652,1228.397,1557.611,1194.976z"/>
			</g>
			<g>
				<path d="M1555.111,1192.476c48.104-27.188,80.67-78.78,80.67-137.865c0-87.277-71.006-158.281-158.281-158.281
					c-87.277,0-158.281,71.004-158.281,158.281c0,59.085,32.565,110.677,80.669,137.865
					c-111.04,33.422-192.174,136.571-192.174,258.357c0,8.792,7.129,15.922,15.922,15.922h507.729
					c8.792,0,15.922-7.13,15.922-15.922C1747.287,1329.047,1666.152,1225.897,1555.111,1192.476z"/>
			</g>
			<g>
				<path d="M1552.611,1189.976c48.104-27.188,80.67-78.78,80.67-137.865c0-87.277-71.006-158.281-158.281-158.281
					c-87.277,0-158.281,71.004-158.281,158.281c0,59.085,32.565,110.677,80.669,137.865
					c-111.04,33.422-192.174,136.571-192.174,258.357c0,8.792,7.129,15.922,15.922,15.922h507.729
					c8.792,0,15.922-7.13,15.922-15.922C1744.787,1326.547,1663.652,1223.397,1552.611,1189.976z"/>
			</g>
			<g>
				<path d="M1550.111,1187.476c48.104-27.188,80.67-78.78,80.67-137.865c0-87.277-71.006-158.281-158.281-158.281
					c-87.277,0-158.281,71.004-158.281,158.281c0,59.085,32.565,110.677,80.669,137.865
					c-111.04,33.422-192.174,136.571-192.174,258.357c0,8.792,7.129,15.922,15.922,15.922h507.729
					c8.792,0,15.922-7.13,15.922-15.922C1742.287,1324.047,1661.152,1220.897,1550.111,1187.476z"/>
			</g>
			<g>
				<path d="M1547.611,1184.976c48.104-27.188,80.67-78.78,80.67-137.865c0-87.277-71.006-158.281-158.281-158.281
					c-87.277,0-158.281,71.004-158.281,158.281c0,59.085,32.565,110.677,80.669,137.865
					c-111.04,33.422-192.174,136.571-192.174,258.357c0,8.792,7.129,15.922,15.922,15.922h507.729
					c8.792,0,15.922-7.13,15.922-15.922C1739.787,1321.547,1658.652,1218.397,1547.611,1184.976z"/>
			</g>
			<g>
				<path d="M1545.111,1182.476c48.104-27.188,80.67-78.78,80.67-137.865c0-87.277-71.006-158.281-158.281-158.281
					c-87.277,0-158.281,71.004-158.281,158.281c0,59.085,32.565,110.677,80.669,137.865
					c-111.04,33.422-192.174,136.571-192.174,258.357c0,8.792,7.129,15.922,15.922,15.922h507.729
					c8.792,0,15.922-7.13,15.922-15.922C1737.287,1319.047,1656.152,1215.897,1545.111,1182.476z"/>
			</g>
			<g>
				<path d="M1542.611,1179.976c48.104-27.188,80.67-78.78,80.67-137.865c0-87.277-71.006-158.281-158.281-158.281
					c-87.277,0-158.281,71.004-158.281,158.281c0,59.085,32.565,110.677,80.669,137.865
					c-111.04,33.422-192.174,136.571-192.174,258.357c0,8.792,7.129,15.922,15.922,15.922h507.729
					c8.792,0,15.922-7.13,15.922-15.922C1734.787,1316.547,1653.652,1213.397,1542.611,1179.976z"/>
			</g>
			<g>
				<path d="M1540.111,1177.476c48.104-27.188,80.67-78.78,80.67-137.865c0-87.277-71.006-158.281-158.281-158.281
					c-87.277,0-158.281,71.004-158.281,158.281c0,59.085,32.565,110.677,80.669,137.865
					c-111.04,33.422-192.174,136.571-192.174,258.357c0,8.792,7.129,15.922,15.922,15.922h507.729
					c8.792,0,15.922-7.13,15.922-15.922C1732.287,1314.047,1651.152,1210.897,1540.111,1177.476z"/>
			</g>
			<g>
				<path d="M1537.611,1174.976c48.104-27.188,80.67-78.78,80.67-137.865c0-87.277-71.006-158.281-158.281-158.281
					c-87.277,0-158.281,71.004-158.281,158.281c0,59.085,32.565,110.677,80.669,137.865
					c-111.04,33.422-192.174,136.571-192.174,258.357c0,8.792,7.129,15.922,15.922,15.922h507.729
					c8.792,0,15.922-7.13,15.922-15.922C1729.787,1311.547,1648.652,1208.397,1537.611,1174.976z"/>
			</g>
			<g>
				<path d="M1535.111,1172.476c48.104-27.188,80.67-78.78,80.67-137.865c0-87.277-71.006-158.281-158.281-158.281
					c-87.277,0-158.281,71.004-158.281,158.281c0,59.085,32.565,110.677,80.669,137.865
					c-111.04,33.422-192.174,136.571-192.174,258.357c0,8.792,7.129,15.922,15.922,15.922h507.729
					c8.792,0,15.922-7.13,15.922-15.922C1727.287,1309.047,1646.152,1205.897,1535.111,1172.476z"/>
			</g>
			<g>
				<path d="M1532.611,1169.976c48.104-27.188,80.67-78.78,80.67-137.865c0-87.277-71.006-158.281-158.281-158.281
					c-87.277,0-158.281,71.004-158.281,158.281c0,59.085,32.565,110.677,80.669,137.865
					c-111.04,33.422-192.174,136.571-192.174,258.357c0,8.792,7.129,15.922,15.922,15.922h507.729
					c8.792,0,15.922-7.13,15.922-15.922C1724.787,1306.547,1643.652,1203.397,1532.611,1169.976z"/>
			</g>
			<g>
				<path d="M1530.111,1167.476c48.104-27.188,80.67-78.78,80.67-137.865c0-87.277-71.006-158.281-158.281-158.281
					c-87.277,0-158.281,71.004-158.281,158.281c0,59.085,32.565,110.677,80.669,137.865
					c-111.04,33.422-192.174,136.571-192.174,258.357c0,8.792,7.129,15.922,15.922,15.922h507.729
					c8.792,0,15.922-7.13,15.922-15.922C1722.287,1304.047,1641.152,1200.897,1530.111,1167.476z"/>
			</g>
			<g>
				<path d="M1527.611,1164.976c48.104-27.188,80.67-78.78,80.67-137.865c0-87.277-71.006-158.281-158.281-158.281
					c-87.277,0-158.281,71.004-158.281,158.281c0,59.085,32.565,110.677,80.669,137.865
					c-111.04,33.422-192.174,136.571-192.174,258.357c0,8.792,7.129,15.922,15.922,15.922h507.729
					c8.792,0,15.922-7.13,15.922-15.922C1719.787,1301.547,1638.652,1198.397,1527.611,1164.976z"/>
			</g>
			<g>
				<path d="M1525.111,1162.476c48.104-27.188,80.67-78.78,80.67-137.865c0-87.277-71.006-158.281-158.281-158.281
					c-87.277,0-158.281,71.004-158.281,158.281c0,59.085,32.565,110.677,80.669,137.865
					c-111.04,33.422-192.174,136.571-192.174,258.357c0,8.792,7.129,15.922,15.922,15.922h507.729
					c8.792,0,15.922-7.13,15.922-15.922C1717.287,1299.047,1636.152,1195.897,1525.111,1162.476z"/>
			</g>
			<g>
				<path d="M1522.611,1159.976c48.104-27.188,80.67-78.78,80.67-137.865c0-87.278-71.006-158.281-158.281-158.281
					c-87.277,0-158.281,71.004-158.281,158.281c0,59.085,32.565,110.677,80.669,137.865
					c-111.04,33.422-192.174,136.571-192.174,258.357c0,8.792,7.129,15.922,15.922,15.922h507.729
					c8.792,0,15.922-7.13,15.922-15.922C1714.787,1296.547,1633.652,1193.397,1522.611,1159.976z"/>
			</g>
			<g>
				<path d="M1520.111,1157.476c48.104-27.188,80.67-78.78,80.67-137.865c0-87.278-71.006-158.281-158.281-158.281
					c-87.277,0-158.281,71.004-158.281,158.281c0,59.085,32.565,110.677,80.669,137.865
					c-111.04,33.422-192.174,136.571-192.174,258.357c0,8.792,7.129,15.922,15.922,15.922h507.729
					c8.792,0,15.922-7.13,15.922-15.922C1712.287,1294.047,1631.152,1190.897,1520.111,1157.476z"/>
			</g>
			<g>
				<path d="M1517.611,1154.976c48.104-27.188,80.67-78.78,80.67-137.865c0-87.278-71.006-158.281-158.281-158.281
					c-87.277,0-158.281,71.004-158.281,158.281c0,59.085,32.565,110.677,80.669,137.865
					c-111.04,33.422-192.174,136.571-192.174,258.357c0,8.792,7.129,15.922,15.922,15.922h507.729
					c8.792,0,15.922-7.13,15.922-15.922C1709.787,1291.547,1628.652,1188.397,1517.611,1154.976z"/>
			</g>
			<g>
				<path d="M1515.111,1152.476c48.104-27.188,80.67-78.78,80.67-137.865c0-87.278-71.006-158.281-158.281-158.281
					c-87.277,0-158.281,71.004-158.281,158.281c0,59.085,32.565,110.677,80.669,137.865
					c-111.04,33.422-192.174,136.571-192.174,258.357c0,8.792,7.129,15.922,15.922,15.922h507.729
					c8.792,0,15.922-7.13,15.922-15.922C1707.287,1289.047,1626.152,1185.897,1515.111,1152.476z"/>
			</g>
			<g>
				<path d="M1512.611,1149.976c48.104-27.188,80.67-78.78,80.67-137.865c0-87.278-71.006-158.281-158.281-158.281
					c-87.277,0-158.281,71.004-158.281,158.281c0,59.085,32.565,110.677,80.669,137.865
					c-111.04,33.422-192.174,136.571-192.174,258.357c0,8.792,7.129,15.922,15.922,15.922h507.729
					c8.792,0,15.922-7.13,15.922-15.922C1704.787,1286.547,1623.652,1183.397,1512.611,1149.976z"/>
			</g>
			<g>
				<path d="M1510.111,1147.476c48.104-27.188,80.67-78.78,80.67-137.865c0-87.278-71.006-158.281-158.281-158.281
					c-87.277,0-158.281,71.004-158.281,158.281c0,59.085,32.565,110.677,80.669,137.865
					c-111.04,33.422-192.174,136.571-192.174,258.357c0,8.792,7.129,15.922,15.922,15.922h507.729
					c8.792,0,15.922-7.13,15.922-15.922C1702.287,1284.047,1621.152,1180.897,1510.111,1147.476z"/>
			</g>
			<g>
				<path d="M1507.611,1144.976c48.104-27.188,80.67-78.78,80.67-137.865c0-87.278-71.006-158.281-158.281-158.281
					c-87.277,0-158.281,71.004-158.281,158.281c0,59.085,32.565,110.677,80.669,137.865
					c-111.04,33.422-192.174,136.571-192.174,258.357c0,8.792,7.129,15.922,15.922,15.922h507.729
					c8.792,0,15.922-7.13,15.922-15.922C1699.787,1281.547,1618.652,1178.397,1507.611,1144.976z"/>
			</g>
			<g>
				<path d="M1505.111,1142.476c48.104-27.188,80.67-78.78,80.67-137.865c0-87.278-71.006-158.281-158.281-158.281
					c-87.277,0-158.281,71.004-158.281,158.281c0,59.085,32.565,110.677,80.669,137.865
					c-111.04,33.422-192.174,136.571-192.174,258.357c0,8.792,7.129,15.922,15.922,15.922h507.729
					c8.792,0,15.922-7.13,15.922-15.922C1697.287,1279.047,1616.152,1175.897,1505.111,1142.476z"/>
			</g>
			<g>
				<path d="M1502.611,1139.976c48.104-27.188,80.67-78.78,80.67-137.865c0-87.278-71.006-158.281-158.281-158.281
					c-87.277,0-158.281,71.004-158.281,158.281c0,59.085,32.565,110.677,80.669,137.865
					c-111.04,33.422-192.174,136.571-192.174,258.357c0,8.792,7.129,15.922,15.922,15.922h507.729
					c8.792,0,15.922-7.13,15.922-15.922C1694.787,1276.547,1613.652,1173.397,1502.611,1139.976z"/>
			</g>
			<g>
				<path d="M1500.111,1137.476c48.104-27.188,80.67-78.78,80.67-137.865c0-87.278-71.006-158.281-158.281-158.281
					c-87.277,0-158.281,71.004-158.281,158.281c0,59.085,32.565,110.677,80.669,137.865
					c-111.04,33.422-192.174,136.571-192.174,258.357c0,8.792,7.129,15.922,15.922,15.922h507.729
					c8.792,0,15.922-7.13,15.922-15.922C1692.287,1274.047,1611.152,1170.897,1500.111,1137.476z"/>
			</g>
			<g>
				<path d="M1497.611,1134.976c48.104-27.188,80.67-78.78,80.67-137.865c0-87.278-71.006-158.281-158.281-158.281
					c-87.277,0-158.281,71.004-158.281,158.281c0,59.085,32.565,110.677,80.669,137.865
					c-111.04,33.422-192.174,136.571-192.174,258.357c0,8.792,7.129,15.922,15.922,15.922h507.729
					c8.792,0,15.922-7.13,15.922-15.922C1689.787,1271.547,1608.652,1168.397,1497.611,1134.976z"/>
			</g>
			<g>
				<path d="M1495.111,1132.476c48.104-27.188,80.67-78.78,80.67-137.865c0-87.278-71.006-158.281-158.281-158.281
					c-87.277,0-158.281,71.004-158.281,158.281c0,59.085,32.565,110.677,80.669,137.865
					c-111.04,33.422-192.174,136.571-192.174,258.357c0,8.792,7.129,15.922,15.922,15.922h507.729
					c8.792,0,15.922-7.13,15.922-15.922C1687.287,1269.047,1606.152,1165.897,1495.111,1132.476z"/>
			</g>
			<g>
				<path d="M1492.611,1129.976c48.104-27.188,80.67-78.78,80.67-137.865c0-87.278-71.006-158.281-158.281-158.281
					c-87.277,0-158.281,71.004-158.281,158.281c0,59.085,32.565,110.677,80.669,137.865
					c-111.04,33.422-192.174,136.571-192.174,258.357c0,8.792,7.129,15.922,15.922,15.922h507.729
					c8.792,0,15.922-7.13,15.922-15.922C1684.787,1266.547,1603.652,1163.397,1492.611,1129.976z"/>
			</g>
			<g>
				<path d="M1490.111,1127.476c48.104-27.188,80.67-78.78,80.67-137.865c0-87.278-71.006-158.281-158.281-158.281
					c-87.277,0-158.281,71.004-158.281,158.281c0,59.085,32.565,110.677,80.669,137.865
					c-111.04,33.422-192.174,136.571-192.174,258.357c0,8.792,7.129,15.922,15.922,15.922h507.729
					c8.792,0,15.922-7.13,15.922-15.922C1682.287,1264.047,1601.152,1160.897,1490.111,1127.476z"/>
			</g>
			<g>
				<path d="M1487.611,1124.976c48.104-27.188,80.67-78.78,80.67-137.865c0-87.278-71.006-158.281-158.281-158.281
					c-87.277,0-158.281,71.004-158.281,158.281c0,59.085,32.565,110.677,80.669,137.865
					c-111.04,33.422-192.174,136.571-192.174,258.357c0,8.792,7.129,15.922,15.922,15.922h507.729
					c8.792,0,15.922-7.13,15.922-15.922C1679.787,1261.547,1598.652,1158.397,1487.611,1124.976z"/>
			</g>
			<g>
				<path d="M1485.111,1122.476c48.104-27.188,80.67-78.78,80.67-137.865c0-87.278-71.006-158.281-158.281-158.281
					c-87.277,0-158.281,71.004-158.281,158.281c0,59.085,32.565,110.677,80.669,137.865
					c-111.04,33.422-192.174,136.571-192.174,258.357c0,8.792,7.129,15.922,15.922,15.922h507.729
					c8.792,0,15.922-7.13,15.922-15.922C1677.287,1259.047,1596.152,1155.897,1485.111,1122.476z"/>
			</g>
			<g>
				<path d="M1482.611,1119.976c48.104-27.188,80.67-78.78,80.67-137.865c0-87.278-71.006-158.281-158.281-158.281
					c-87.277,0-158.281,71.004-158.281,158.281c0,59.085,32.565,110.677,80.669,137.865
					c-111.04,33.422-192.174,136.571-192.174,258.357c0,8.792,7.129,15.922,15.922,15.922h507.729
					c8.792,0,15.922-7.13,15.922-15.922C1674.787,1256.547,1593.652,1153.397,1482.611,1119.976z"/>
			</g>
			<g>
				<path d="M1480.111,1117.476c48.104-27.188,80.67-78.78,80.67-137.865c0-87.278-71.006-158.281-158.281-158.281
					c-87.277,0-158.281,71.004-158.281,158.281c0,59.085,32.565,110.677,80.669,137.865
					c-111.04,33.422-192.174,136.571-192.174,258.357c0,8.792,7.129,15.922,15.922,15.922h507.729
					c8.792,0,15.922-7.13,15.922-15.922C1672.287,1254.047,1591.152,1150.897,1480.111,1117.476z"/>
			</g>
			<g>
				<path d="M1477.611,1114.976c48.104-27.188,80.67-78.78,80.67-137.865c0-87.278-71.006-158.281-158.281-158.281
					c-87.277,0-158.281,71.004-158.281,158.281c0,59.085,32.565,110.677,80.669,137.865
					c-111.04,33.422-192.174,136.571-192.174,258.357c0,8.792,7.129,15.922,15.922,15.922h507.729
					c8.792,0,15.922-7.13,15.922-15.922C1669.787,1251.547,1588.652,1148.397,1477.611,1114.976z"/>
			</g>
			<g>
				<path d="M1475.111,1112.476c48.104-27.188,80.67-78.78,80.67-137.865c0-87.278-71.006-158.281-158.281-158.281
					c-87.277,0-158.281,71.004-158.281,158.281c0,59.085,32.565,110.677,80.669,137.865
					c-111.04,33.422-192.174,136.571-192.174,258.357c0,8.792,7.129,15.922,15.922,15.922h507.729
					c8.792,0,15.922-7.13,15.922-15.922C1667.287,1249.047,1586.152,1145.897,1475.111,1112.476z"/>
			</g>
			<g>
				<path d="M1472.611,1109.976c48.104-27.188,80.67-78.78,80.67-137.865c0-87.278-71.006-158.281-158.281-158.281
					c-87.277,0-158.281,71.004-158.281,158.281c0,59.085,32.565,110.677,80.669,137.865
					c-111.04,33.422-192.174,136.571-192.174,258.357c0,8.792,7.129,15.922,15.922,15.922h507.729
					c8.792,0,15.922-7.13,15.922-15.922C1664.787,1246.547,1583.652,1143.397,1472.611,1109.976z"/>
			</g>
			<g>
				<path d="M1470.111,1107.476c48.104-27.188,80.67-78.78,80.67-137.865c0-87.278-71.006-158.281-158.281-158.281
					c-87.277,0-158.281,71.004-158.281,158.281c0,59.085,32.565,110.677,80.669,137.865
					c-111.04,33.422-192.174,136.571-192.174,258.357c0,8.792,7.129,15.922,15.922,15.922h507.729
					c8.792,0,15.922-7.13,15.922-15.922C1662.287,1244.047,1581.152,1140.897,1470.111,1107.476z"/>
			</g>
			<g>
				<path d="M1467.611,1104.976c48.104-27.188,80.67-78.78,80.67-137.865c0-87.278-71.006-158.281-158.281-158.281
					c-87.277,0-158.281,71.004-158.281,158.281c0,59.085,32.565,110.677,80.669,137.865
					c-111.04,33.422-192.174,136.571-192.174,258.357c0,8.792,7.129,15.922,15.922,15.922h507.729
					c8.792,0,15.922-7.13,15.922-15.922C1659.787,1241.547,1578.652,1138.397,1467.611,1104.976z"/>
			</g>
			<g>
				<path d="M1465.111,1102.476c48.104-27.188,80.67-78.78,80.67-137.865c0-87.278-71.006-158.281-158.281-158.281
					c-87.277,0-158.281,71.004-158.281,158.281c0,59.085,32.565,110.677,80.669,137.865
					c-111.04,33.422-192.174,136.571-192.174,258.357c0,8.792,7.129,15.922,15.922,15.922h507.729
					c8.792,0,15.922-7.13,15.922-15.922C1657.287,1239.047,1576.152,1135.897,1465.111,1102.476z"/>
			</g>
			<g>
				<path d="M1462.611,1099.976c48.104-27.188,80.67-78.78,80.67-137.865c0-87.278-71.006-158.281-158.281-158.281
					c-87.277,0-158.281,71.004-158.281,158.281c0,59.085,32.565,110.677,80.669,137.865
					c-111.04,33.422-192.174,136.571-192.174,258.357c0,8.792,7.129,15.922,15.922,15.922h507.729
					c8.792,0,15.922-7.13,15.922-15.922C1654.787,1236.547,1573.652,1133.397,1462.611,1099.976z"/>
			</g>
			<g>
				<path d="M1460.111,1097.476c48.104-27.188,80.67-78.78,80.67-137.865c0-87.278-71.006-158.281-158.281-158.281
					c-87.277,0-158.281,71.004-158.281,158.281c0,59.085,32.565,110.677,80.669,137.865
					c-111.04,33.422-192.174,136.571-192.174,258.357c0,8.792,7.129,15.922,15.922,15.922h507.729
					c8.792,0,15.922-7.13,15.922-15.922C1652.287,1234.047,1571.152,1130.897,1460.111,1097.476z"/>
			</g>
			<g>
				<path d="M1457.611,1094.976c48.104-27.188,80.67-78.78,80.67-137.865c0-87.278-71.006-158.281-158.281-158.281
					c-87.277,0-158.281,71.004-158.281,158.281c0,59.085,32.565,110.677,80.669,137.865
					c-111.04,33.422-192.174,136.571-192.174,258.357c0,8.792,7.129,15.922,15.922,15.922h507.729
					c8.792,0,15.922-7.13,15.922-15.922C1649.787,1231.547,1568.652,1128.397,1457.611,1094.976z"/>
			</g>
			<g>
				<path d="M1455.111,1092.476c48.104-27.188,80.67-78.78,80.67-137.865c0-87.278-71.006-158.281-158.281-158.281
					c-87.277,0-158.281,71.004-158.281,158.281c0,59.085,32.565,110.677,80.669,137.865
					c-111.04,33.422-192.174,136.571-192.174,258.357c0,8.792,7.129,15.922,15.922,15.922h507.729
					c8.792,0,15.922-7.13,15.922-15.922C1647.287,1229.047,1566.152,1125.897,1455.111,1092.476z"/>
			</g>
			<g>
				<path d="M1452.611,1089.976c48.104-27.188,80.67-78.78,80.67-137.865c0-87.278-71.006-158.281-158.281-158.281
					c-87.277,0-158.281,71.004-158.281,158.281c0,59.085,32.565,110.677,80.669,137.865
					c-111.04,33.422-192.174,136.571-192.174,258.357c0,8.792,7.129,15.922,15.922,15.922h507.729
					c8.792,0,15.922-7.13,15.922-15.922C1644.787,1226.547,1563.652,1123.397,1452.611,1089.976z"/>
			</g>
			<g>
				<path d="M1450.111,1087.476c48.104-27.188,80.67-78.78,80.67-137.865c0-87.278-71.006-158.281-158.281-158.281
					c-87.277,0-158.281,71.004-158.281,158.281c0,59.085,32.565,110.677,80.669,137.865
					c-111.04,33.422-192.174,136.571-192.174,258.357c0,8.792,7.129,15.922,15.922,15.922h507.729
					c8.792,0,15.922-7.13,15.922-15.922C1642.287,1224.047,1561.152,1120.897,1450.111,1087.476z"/>
			</g>
			<g>
				<path d="M1447.611,1084.976c48.104-27.188,80.67-78.78,80.67-137.865c0-87.278-71.006-158.281-158.281-158.281
					c-87.277,0-158.281,71.004-158.281,158.281c0,59.085,32.565,110.677,80.669,137.865
					c-111.04,33.422-192.174,136.571-192.174,258.357c0,8.792,7.129,15.922,15.922,15.922h507.729
					c8.792,0,15.922-7.13,15.922-15.922C1639.787,1221.547,1558.652,1118.397,1447.611,1084.976z"/>
			</g>
			<g>
				<path d="M1445.111,1082.476c48.104-27.188,80.67-78.78,80.67-137.865c0-87.278-71.006-158.281-158.281-158.281
					c-87.277,0-158.281,71.004-158.281,158.281c0,59.085,32.565,110.677,80.669,137.865
					c-111.04,33.422-192.174,136.571-192.174,258.357c0,8.792,7.129,15.922,15.922,15.922h507.729
					c8.792,0,15.922-7.13,15.922-15.922C1637.287,1219.047,1556.152,1115.897,1445.111,1082.476z"/>
			</g>
			<g>
				<path d="M1442.611,1079.976c48.104-27.188,80.67-78.78,80.67-137.865c0-87.278-71.006-158.281-158.281-158.281
					c-87.277,0-158.281,71.004-158.281,158.281c0,59.085,32.565,110.677,80.669,137.865
					c-111.04,33.422-192.174,136.571-192.174,258.357c0,8.792,7.129,15.922,15.922,15.922h507.729
					c8.792,0,15.922-7.13,15.922-15.922C1634.787,1216.547,1553.652,1113.397,1442.611,1079.976z"/>
			</g>
			<g>
				<path d="M1440.111,1077.476c48.104-27.188,80.67-78.78,80.67-137.865c0-87.278-71.006-158.281-158.281-158.281
					c-87.277,0-158.281,71.004-158.281,158.281c0,59.085,32.565,110.677,80.669,137.865
					c-111.04,33.422-192.174,136.571-192.174,258.357c0,8.792,7.129,15.922,15.922,15.922h507.729
					c8.792,0,15.922-7.13,15.922-15.922C1632.287,1214.047,1551.152,1110.897,1440.111,1077.476z"/>
			</g>
			<g>
				<path d="M1437.611,1074.976c48.104-27.188,80.67-78.78,80.67-137.865c0-87.278-71.006-158.281-158.281-158.281
					c-87.277,0-158.281,71.004-158.281,158.281c0,59.085,32.565,110.677,80.669,137.865
					c-111.04,33.422-192.174,136.571-192.174,258.357c0,8.792,7.129,15.922,15.922,15.922h507.729
					c8.792,0,15.922-7.13,15.922-15.922C1629.787,1211.547,1548.652,1108.397,1437.611,1074.976z"/>
			</g>
			<g>
				<path d="M1435.111,1072.476c48.104-27.188,80.67-78.78,80.67-137.865c0-87.278-71.006-158.281-158.281-158.281
					c-87.277,0-158.281,71.004-158.281,158.281c0,59.085,32.565,110.677,80.669,137.865
					c-111.04,33.422-192.174,136.571-192.174,258.357c0,8.792,7.129,15.922,15.922,15.922h507.729
					c8.792,0,15.922-7.13,15.922-15.922C1627.287,1209.047,1546.152,1105.897,1435.111,1072.476z"/>
			</g>
			<g>
				<path d="M1432.611,1069.976c48.104-27.188,80.67-78.78,80.67-137.865c0-87.278-71.006-158.281-158.281-158.281
					c-87.277,0-158.281,71.004-158.281,158.281c0,59.085,32.565,110.677,80.669,137.865
					c-111.04,33.422-192.174,136.571-192.174,258.357c0,8.792,7.129,15.922,15.922,15.922h507.729
					c8.792,0,15.922-7.13,15.922-15.922C1624.787,1206.547,1543.652,1103.397,1432.611,1069.976z"/>
			</g>
			<g>
				<path d="M1430.111,1067.476c48.104-27.188,80.67-78.78,80.67-137.865c0-87.278-71.006-158.281-158.281-158.281
					c-87.277,0-158.281,71.004-158.281,158.281c0,59.085,32.565,110.677,80.669,137.865
					c-111.04,33.422-192.174,136.571-192.174,258.357c0,8.792,7.129,15.922,15.922,15.922h507.729
					c8.792,0,15.922-7.13,15.922-15.922C1622.287,1204.047,1541.152,1100.897,1430.111,1067.476z"/>
			</g>
			<g>
				<path d="M1427.611,1064.976c48.104-27.188,80.67-78.78,80.67-137.865c0-87.278-71.006-158.281-158.281-158.281
					c-87.277,0-158.281,71.004-158.281,158.281c0,59.085,32.565,110.677,80.669,137.865
					c-111.04,33.422-192.174,136.571-192.174,258.357c0,8.792,7.129,15.922,15.922,15.922h507.729
					c8.792,0,15.922-7.13,15.922-15.922C1619.787,1201.547,1538.652,1098.397,1427.611,1064.976z"/>
			</g>
			<g>
				<path d="M1425.111,1062.476c48.104-27.188,80.67-78.78,80.67-137.865c0-87.278-71.006-158.281-158.281-158.281
					c-87.277,0-158.281,71.004-158.281,158.281c0,59.085,32.565,110.677,80.669,137.865
					c-111.04,33.422-192.174,136.571-192.174,258.357c0,8.792,7.129,15.922,15.922,15.922h507.729
					c8.792,0,15.922-7.13,15.922-15.922C1617.287,1199.047,1536.152,1095.897,1425.111,1062.476z"/>
			</g>
			<g>
				<path d="M1422.611,1059.976c48.104-27.188,80.67-78.78,80.67-137.865c0-87.278-71.006-158.281-158.281-158.281
					c-87.277,0-158.281,71.004-158.281,158.281c0,59.085,32.565,110.677,80.669,137.865
					c-111.04,33.422-192.174,136.571-192.174,258.357c0,8.792,7.129,15.922,15.922,15.922h507.729
					c8.792,0,15.922-7.13,15.922-15.922C1614.787,1196.547,1533.652,1093.397,1422.611,1059.976z"/>
			</g>
			<g>
				<path d="M1420.111,1057.476c48.104-27.188,80.67-78.78,80.67-137.865c0-87.278-71.006-158.281-158.281-158.281
					c-87.277,0-158.281,71.004-158.281,158.281c0,59.085,32.565,110.677,80.669,137.865
					c-111.04,33.422-192.174,136.571-192.174,258.357c0,8.792,7.129,15.922,15.922,15.922h507.729
					c8.792,0,15.922-7.13,15.922-15.922C1612.287,1194.047,1531.152,1090.897,1420.111,1057.476z"/>
			</g>
			<g>
				<path d="M1417.611,1054.976c48.104-27.188,80.67-78.78,80.67-137.865c0-87.278-71.006-158.281-158.281-158.281
					c-87.277,0-158.281,71.004-158.281,158.281c0,59.085,32.565,110.677,80.669,137.865
					c-111.04,33.422-192.174,136.571-192.174,258.357c0,8.792,7.129,15.922,15.922,15.922h507.729
					c8.792,0,15.922-7.13,15.922-15.922C1609.787,1191.547,1528.652,1088.397,1417.611,1054.976z"/>
			</g>
			<g>
				<path d="M1415.111,1052.476c48.104-27.188,80.67-78.78,80.67-137.865c0-87.278-71.006-158.281-158.281-158.281
					c-87.277,0-158.281,71.004-158.281,158.281c0,59.085,32.565,110.677,80.669,137.865
					c-111.04,33.422-192.174,136.571-192.174,258.357c0,8.792,7.129,15.922,15.922,15.922h507.729
					c8.792,0,15.922-7.13,15.922-15.922C1607.287,1189.047,1526.152,1085.897,1415.111,1052.476z"/>
			</g>
			<g>
				<path d="M1412.611,1049.976c48.104-27.187,80.67-78.78,80.67-137.865c0-87.278-71.006-158.281-158.281-158.281
					c-87.277,0-158.281,71.004-158.281,158.281c0,59.085,32.565,110.677,80.669,137.865
					c-111.04,33.422-192.174,136.571-192.174,258.357c0,8.792,7.129,15.922,15.922,15.922h507.729
					c8.792,0,15.922-7.13,15.922-15.922C1604.787,1186.547,1523.652,1083.397,1412.611,1049.976z"/>
			</g>
			<g>
				<path d="M1410.111,1047.476c48.104-27.187,80.67-78.78,80.67-137.865c0-87.278-71.006-158.281-158.281-158.281
					c-87.277,0-158.281,71.004-158.281,158.281c0,59.085,32.565,110.677,80.669,137.865
					c-111.04,33.422-192.174,136.571-192.174,258.357c0,8.792,7.129,15.922,15.922,15.922h507.729
					c8.792,0,15.922-7.13,15.922-15.922C1602.287,1184.047,1521.152,1080.897,1410.111,1047.476z"/>
			</g>
			<g>
				<path d="M1407.611,1044.976c48.104-27.187,80.67-78.78,80.67-137.865c0-87.278-71.006-158.281-158.281-158.281
					c-87.277,0-158.281,71.004-158.281,158.281c0,59.085,32.565,110.677,80.669,137.865
					c-111.04,33.422-192.174,136.571-192.174,258.357c0,8.792,7.129,15.922,15.922,15.922h507.729
					c8.792,0,15.922-7.13,15.922-15.922C1599.787,1181.547,1518.652,1078.397,1407.611,1044.976z"/>
			</g>
			<g>
				<path d="M1405.111,1042.476c48.104-27.187,80.67-78.78,80.67-137.865c0-87.278-71.006-158.281-158.281-158.281
					c-87.277,0-158.281,71.004-158.281,158.281c0,59.085,32.565,110.677,80.669,137.865
					c-111.04,33.422-192.174,136.571-192.174,258.357c0,8.792,7.129,15.922,15.922,15.922h507.729
					c8.792,0,15.922-7.13,15.922-15.922C1597.287,1179.047,1516.152,1075.897,1405.111,1042.476z"/>
			</g>
			<g>
				<path d="M1402.611,1039.976c48.104-27.187,80.67-78.78,80.67-137.865c0-87.278-71.006-158.281-158.281-158.281
					c-87.277,0-158.281,71.004-158.281,158.281c0,59.085,32.565,110.677,80.669,137.865
					c-111.04,33.422-192.174,136.571-192.174,258.357c0,8.792,7.129,15.922,15.922,15.922h507.729
					c8.792,0,15.922-7.13,15.922-15.922C1594.787,1176.547,1513.652,1073.397,1402.611,1039.976z"/>
			</g>
			<g>
				<path d="M1400.111,1037.476c48.104-27.187,80.67-78.78,80.67-137.865c0-87.278-71.006-158.281-158.281-158.281
					c-87.277,0-158.281,71.004-158.281,158.281c0,59.085,32.565,110.677,80.669,137.865
					c-111.04,33.422-192.174,136.571-192.174,258.357c0,8.792,7.129,15.922,15.922,15.922h507.729
					c8.792,0,15.922-7.13,15.922-15.922C1592.287,1174.047,1511.152,1070.897,1400.111,1037.476z"/>
			</g>
			<g>
				<path d="M1397.611,1034.976c48.104-27.187,80.67-78.78,80.67-137.865c0-87.278-71.006-158.281-158.281-158.281
					c-87.277,0-158.281,71.004-158.281,158.281c0,59.085,32.565,110.677,80.669,137.865
					c-111.04,33.422-192.174,136.571-192.174,258.357c0,8.792,7.129,15.922,15.922,15.922h507.729
					c8.792,0,15.922-7.13,15.922-15.922C1589.787,1171.547,1508.652,1068.397,1397.611,1034.976z"/>
			</g>
			<g>
				<path d="M1395.111,1032.476c48.104-27.187,80.67-78.78,80.67-137.865c0-87.278-71.006-158.281-158.281-158.281
					c-87.277,0-158.281,71.004-158.281,158.281c0,59.085,32.565,110.677,80.669,137.865
					c-111.04,33.422-192.174,136.571-192.174,258.357c0,8.792,7.129,15.922,15.922,15.922h507.729
					c8.792,0,15.922-7.13,15.922-15.922C1587.287,1169.047,1506.152,1065.897,1395.111,1032.476z"/>
			</g>
			<g>
				<path d="M1392.611,1029.976c48.104-27.187,80.67-78.78,80.67-137.865c0-87.278-71.006-158.281-158.281-158.281
					c-87.277,0-158.281,71.004-158.281,158.281c0,59.085,32.565,110.677,80.669,137.865
					c-111.04,33.422-192.174,136.571-192.174,258.357c0,8.792,7.129,15.922,15.922,15.922h507.729
					c8.792,0,15.922-7.13,15.922-15.922C1584.787,1166.547,1503.652,1063.397,1392.611,1029.976z"/>
			</g>
			<g>
				<path d="M1390.111,1027.476c48.104-27.187,80.67-78.78,80.67-137.865c0-87.278-71.006-158.281-158.281-158.281
					c-87.277,0-158.281,71.004-158.281,158.281c0,59.085,32.565,110.677,80.669,137.865
					c-111.04,33.422-192.174,136.571-192.174,258.357c0,8.792,7.129,15.922,15.922,15.922h507.729
					c8.792,0,15.922-7.13,15.922-15.922C1582.287,1164.047,1501.152,1060.897,1390.111,1027.476z"/>
			</g>
			<g>
				<path d="M1387.611,1024.976c48.104-27.187,80.67-78.78,80.67-137.865c0-87.278-71.006-158.281-158.281-158.281
					c-87.277,0-158.281,71.004-158.281,158.281c0,59.085,32.565,110.677,80.669,137.865
					c-111.04,33.422-192.174,136.571-192.174,258.357c0,8.792,7.129,15.922,15.922,15.922h507.729
					c8.792,0,15.922-7.13,15.922-15.922C1579.787,1161.547,1498.652,1058.397,1387.611,1024.976z"/>
			</g>
			<g>
				<path d="M1385.111,1022.477c48.104-27.188,80.67-78.78,80.67-137.865c0-87.278-71.006-158.281-158.281-158.281
					c-87.277,0-158.281,71.004-158.281,158.281c0,59.085,32.565,110.677,80.669,137.865
					c-111.04,33.421-192.174,136.57-192.174,258.357c0,8.792,7.129,15.922,15.922,15.922h507.729c8.792,0,15.922-7.13,15.922-15.922
					C1577.287,1159.047,1496.152,1055.897,1385.111,1022.477z"/>
			</g>
			<g>
				<path d="M1382.611,1019.977c48.104-27.188,80.67-78.78,80.67-137.865c0-87.278-71.006-158.281-158.281-158.281
					c-87.277,0-158.281,71.004-158.281,158.281c0,59.085,32.565,110.677,80.669,137.865
					c-111.04,33.421-192.174,136.57-192.174,258.357c0,8.792,7.129,15.922,15.922,15.922h507.729c8.792,0,15.922-7.13,15.922-15.922
					C1574.787,1156.547,1493.652,1053.397,1382.611,1019.977z"/>
			</g>
			<g>
				<path d="M1380.111,1017.477c48.104-27.188,80.67-78.78,80.67-137.865c0-87.278-71.006-158.281-158.281-158.281
					c-87.277,0-158.281,71.004-158.281,158.281c0,59.085,32.565,110.677,80.669,137.865
					c-111.04,33.421-192.174,136.57-192.174,258.357c0,8.792,7.129,15.922,15.922,15.922h507.729c8.792,0,15.922-7.13,15.922-15.922
					C1572.287,1154.047,1491.152,1050.897,1380.111,1017.477z"/>
			</g>
			<g>
				<path d="M1377.611,1014.977c48.104-27.188,80.67-78.78,80.67-137.865c0-87.278-71.006-158.281-158.281-158.281
					c-87.277,0-158.281,71.004-158.281,158.281c0,59.085,32.565,110.677,80.669,137.865
					c-111.04,33.421-192.174,136.57-192.174,258.357c0,8.792,7.129,15.922,15.922,15.922h507.729c8.792,0,15.922-7.13,15.922-15.922
					C1569.787,1151.547,1488.652,1048.397,1377.611,1014.977z"/>
			</g>
			<g>
				<path d="M1375.111,1012.477c48.104-27.188,80.67-78.78,80.67-137.865c0-87.278-71.006-158.281-158.281-158.281
					c-87.277,0-158.281,71.004-158.281,158.281c0,59.085,32.565,110.677,80.669,137.865
					c-111.04,33.421-192.174,136.57-192.174,258.357c0,8.792,7.129,15.922,15.922,15.922h507.729c8.792,0,15.922-7.13,15.922-15.922
					C1567.287,1149.047,1486.152,1045.897,1375.111,1012.477z"/>
			</g>
			<g>
				<path d="M1372.611,1009.977c48.104-27.188,80.67-78.78,80.67-137.865c0-87.278-71.006-158.281-158.281-158.281
					c-87.277,0-158.281,71.004-158.281,158.281c0,59.085,32.565,110.677,80.669,137.865
					c-111.04,33.421-192.174,136.57-192.174,258.357c0,8.792,7.129,15.922,15.922,15.922h507.729c8.792,0,15.922-7.13,15.922-15.922
					C1564.787,1146.547,1483.652,1043.397,1372.611,1009.977z"/>
			</g>
			<g>
				<path d="M1370.111,1007.477c48.104-27.188,80.67-78.78,80.67-137.865c0-87.278-71.006-158.281-158.281-158.281
					c-87.277,0-158.281,71.004-158.281,158.281c0,59.085,32.565,110.677,80.669,137.865
					c-111.04,33.421-192.174,136.57-192.174,258.357c0,8.792,7.129,15.922,15.922,15.922h507.729c8.792,0,15.922-7.13,15.922-15.922
					C1562.287,1144.047,1481.152,1040.897,1370.111,1007.477z"/>
			</g>
			<g>
				<path d="M1367.611,1004.977c48.104-27.188,80.67-78.78,80.67-137.865c0-87.278-71.006-158.281-158.281-158.281
					c-87.277,0-158.281,71.004-158.281,158.281c0,59.085,32.565,110.677,80.669,137.865
					c-111.04,33.421-192.174,136.57-192.174,258.357c0,8.792,7.129,15.922,15.922,15.922h507.729c8.792,0,15.922-7.13,15.922-15.922
					C1559.787,1141.547,1478.652,1038.397,1367.611,1004.977z"/>
			</g>
			<g>
				<path d="M1365.111,1002.477c48.104-27.188,80.67-78.78,80.67-137.865c0-87.278-71.006-158.281-158.281-158.281
					c-87.277,0-158.281,71.004-158.281,158.281c0,59.085,32.565,110.677,80.669,137.865
					c-111.04,33.421-192.174,136.57-192.174,258.357c0,8.792,7.129,15.922,15.922,15.922h507.729c8.792,0,15.922-7.13,15.922-15.922
					C1557.287,1139.047,1476.152,1035.897,1365.111,1002.477z"/>
			</g>
			<g>
				<path d="M1362.611,999.977c48.104-27.188,80.67-78.78,80.67-137.865c0-87.278-71.006-158.281-158.281-158.281
					c-87.277,0-158.281,71.004-158.281,158.281c0,59.085,32.565,110.677,80.669,137.865
					c-111.04,33.421-192.174,136.57-192.174,258.357c0,8.792,7.128,15.922,15.922,15.922h507.729c8.792,0,15.922-7.13,15.922-15.922
					C1554.787,1136.547,1473.652,1033.397,1362.611,999.977z"/>
			</g>
			<g>
				<path d="M1360.111,997.477c48.104-27.188,80.67-78.78,80.67-137.865c0-87.278-71.006-158.281-158.281-158.281
					c-87.277,0-158.281,71.004-158.281,158.281c0,59.085,32.565,110.677,80.669,137.865
					c-111.04,33.421-192.174,136.57-192.174,258.357c0,8.792,7.128,15.922,15.922,15.922h507.729c8.792,0,15.922-7.13,15.922-15.922
					C1552.287,1134.047,1471.152,1030.897,1360.111,997.477z"/>
			</g>
			<g>
				<path d="M1357.611,994.977c48.104-27.188,80.67-78.78,80.67-137.865c0-87.278-71.006-158.281-158.281-158.281
					c-87.277,0-158.281,71.004-158.281,158.281c0,59.085,32.565,110.677,80.669,137.865
					c-111.04,33.421-192.174,136.57-192.174,258.357c0,8.792,7.128,15.922,15.922,15.922h507.729c8.792,0,15.922-7.13,15.922-15.922
					C1549.787,1131.547,1468.652,1028.397,1357.611,994.977z"/>
			</g>
			<g>
				<path d="M1355.111,992.477c48.104-27.188,80.67-78.78,80.67-137.865c0-87.278-71.006-158.281-158.281-158.281
					c-87.277,0-158.281,71.004-158.281,158.281c0,59.085,32.565,110.677,80.669,137.865
					c-111.04,33.421-192.174,136.57-192.174,258.357c0,8.792,7.129,15.922,15.923,15.922h507.729c8.792,0,15.922-7.13,15.922-15.922
					C1547.287,1129.047,1466.152,1025.897,1355.111,992.477z"/>
			</g>
			<g>
				<path d="M1352.611,989.977c48.104-27.188,80.67-78.78,80.67-137.865c0-87.278-71.006-158.281-158.281-158.281
					c-87.277,0-158.281,71.004-158.281,158.281c0,59.085,32.565,110.677,80.669,137.865
					c-111.04,33.422-192.174,136.57-192.174,258.357c0,8.792,7.129,15.922,15.923,15.922h507.729c8.792,0,15.922-7.13,15.922-15.922
					C1544.787,1126.547,1463.652,1023.398,1352.611,989.977z"/>
			</g>
			<g>
				<path d="M1350.111,987.477c48.104-27.188,80.67-78.78,80.67-137.865c0-87.278-71.006-158.281-158.281-158.281
					c-87.277,0-158.281,71.004-158.281,158.281c0,59.085,32.565,110.677,80.669,137.865
					c-111.04,33.422-192.174,136.57-192.174,258.357c0,8.792,7.129,15.922,15.923,15.922h507.729c8.792,0,15.922-7.13,15.922-15.922
					C1542.287,1124.047,1461.152,1020.898,1350.111,987.477z"/>
			</g>
			<g>
				<path d="M1347.611,984.977c48.104-27.188,80.67-78.78,80.67-137.865c0-87.278-71.006-158.281-158.281-158.281
					c-87.277,0-158.281,71.004-158.281,158.281c0,59.085,32.565,110.677,80.669,137.865
					c-111.04,33.422-192.174,136.57-192.174,258.357c0,8.792,7.129,15.922,15.923,15.922h507.729c8.792,0,15.922-7.13,15.922-15.922
					C1539.787,1121.547,1458.652,1018.398,1347.611,984.977z"/>
			</g>
			<g>
				<path d="M1345.111,982.477c48.104-27.188,80.67-78.78,80.67-137.865c0-87.278-71.006-158.281-158.281-158.281
					c-87.277,0-158.281,71.004-158.281,158.281c0,59.085,32.565,110.677,80.669,137.865
					c-111.04,33.422-192.174,136.57-192.174,258.357c0,8.792,7.129,15.922,15.923,15.922h507.729c8.792,0,15.922-7.13,15.922-15.922
					C1537.287,1119.047,1456.152,1015.898,1345.111,982.477z"/>
			</g>
			<g>
				<path d="M1342.611,979.977c48.104-27.188,80.67-78.78,80.67-137.865c0-87.278-71.006-158.281-158.281-158.281
					c-87.277,0-158.281,71.004-158.281,158.281c0,59.085,32.565,110.677,80.669,137.865
					c-111.04,33.422-192.174,136.57-192.174,258.357c0,8.792,7.129,15.922,15.923,15.922h507.729c8.792,0,15.922-7.13,15.922-15.922
					C1534.787,1116.547,1453.652,1013.398,1342.611,979.977z"/>
			</g>
			<g>
				<path d="M1340.111,977.477c48.104-27.188,80.67-78.78,80.67-137.865c0-87.278-71.006-158.281-158.281-158.281
					c-87.277,0-158.281,71.004-158.281,158.281c0,59.085,32.565,110.677,80.669,137.865
					c-111.04,33.422-192.174,136.57-192.174,258.357c0,8.792,7.129,15.922,15.923,15.922h507.729c8.792,0,15.922-7.13,15.922-15.922
					C1532.287,1114.047,1451.152,1010.898,1340.111,977.477z"/>
			</g>
			<g>
				<path d="M1337.611,974.977c48.104-27.188,80.67-78.78,80.67-137.865c0-87.278-71.006-158.281-158.281-158.281
					c-87.277,0-158.281,71.004-158.281,158.281c0,59.085,32.565,110.677,80.669,137.865
					c-111.04,33.422-192.174,136.57-192.174,258.357c0,8.792,7.129,15.922,15.923,15.922h507.729c8.792,0,15.922-7.13,15.922-15.922
					C1529.787,1111.547,1448.652,1008.398,1337.611,974.977z"/>
			</g>
			<g>
				<path d="M1335.111,972.477c48.104-27.188,80.67-78.78,80.67-137.865c0-87.278-71.006-158.281-158.281-158.281
					c-87.277,0-158.281,71.004-158.281,158.281c0,59.085,32.565,110.677,80.669,137.865
					c-111.04,33.422-192.174,136.57-192.174,258.357c0,8.792,7.128,15.922,15.922,15.922h507.729c8.792,0,15.922-7.13,15.922-15.922
					C1527.287,1109.047,1446.152,1005.898,1335.111,972.477z"/>
			</g>
			<g>
				<path d="M1332.611,969.977c48.104-27.188,80.67-78.78,80.67-137.865c0-87.278-71.006-158.281-158.281-158.281
					c-87.277,0-158.281,71.004-158.281,158.281c0,59.085,32.565,110.677,80.669,137.865
					c-111.04,33.422-192.174,136.57-192.174,258.357c0,8.792,7.128,15.922,15.922,15.922h507.729c8.792,0,15.922-7.13,15.922-15.922
					C1524.787,1106.547,1443.652,1003.398,1332.611,969.977z"/>
			</g>
			<g>
				<path d="M1330.111,967.477c48.104-27.188,80.67-78.78,80.67-137.865c0-87.278-71.006-158.281-158.281-158.281
					c-87.277,0-158.281,71.004-158.281,158.281c0,59.085,32.565,110.677,80.669,137.865
					c-111.04,33.422-192.174,136.57-192.174,258.357c0,8.792,7.128,15.922,15.922,15.922h507.729c8.792,0,15.922-7.13,15.922-15.922
					C1522.287,1104.047,1441.152,1000.898,1330.111,967.477z"/>
			</g>
			<g>
				<path d="M1327.611,964.977c48.104-27.188,80.67-78.78,80.67-137.865c0-87.278-71.006-158.281-158.281-158.281
					c-87.277,0-158.281,71.004-158.281,158.281c0,59.085,32.565,110.677,80.669,137.865
					c-111.04,33.422-192.174,136.57-192.174,258.357c0,8.792,7.128,15.922,15.922,15.922h507.729c8.792,0,15.922-7.13,15.922-15.922
					C1519.787,1101.547,1438.652,998.398,1327.611,964.977z"/>
			</g>
		</g>
	</g>
	<path style="fill:#FFFFFF;" d="M1327.611,964.977c48.104-27.188,80.67-78.78,80.67-137.865
		c0-87.278-71.006-158.281-158.281-158.281c-87.277,0-158.281,71.004-158.281,158.281c0,59.085,32.565,110.677,80.669,137.865
		c-111.04,33.422-192.174,136.57-192.174,258.357c0,8.792,7.128,15.922,15.922,15.922h507.729c8.792,0,15.922-7.13,15.922-15.922
		C1519.787,1101.547,1438.652,998.398,1327.611,964.977z"/>
</g>
</svg>
